# xmcd
#
# Track frame offsets: 
#        150
#        17254
#        30879
#        47903
#        67192
#        90426
#        111944
#        127932
#        148305
#        166399
#        186742
#        207073
#        222878
#        236839
#        250306
#        265968
#        293131
#        313396
#
# Disc length: 4388 seconds
#
# Revision: 0
# Processed by: cddbd v1.5.2PL0 Copyright (c) Steve Scherf et al.
# Submitted via: ExactAudioCopy v0.95a5
#
DISCID=12112212
DTITLE=Various Artist - Sneakerz [Compiled And Mixed By Bart B More And Bingo
DTITLE=Players
DYEAR=2008
DGENRE=House
TTITLE0=DJ Blaqstarr Feat Rye Rye - Shake It To The Ground [Claude Von
TTITLE0=stroke Remix]
TTITLE1=DJ Chus And Peter Gelderblom - Feelin' 4 U [Mastiksoul Remix]
TTITLE2=Jake Childs Feat Jamon - Chains And Ice [Johnny Fiasco Mix]
TTITLE3=Copyright Feat Mr V And Miss Patty - In Da Club Shake Shit Up 
TTITLE3=[Chocolate Puma Club Mix]
TTITLE4=Freemasons Feat Katherine Ellis - When You Touch Me [Bart B Mo
TTITLE4=re Remix]
TTITLE5=Tv Rock Feat Rudy - Been A Long Time [Laidback Luke Remix]
TTITLE6=Roger Martinez And Funkuz - Continuate
TTITLE7=Bingo Players - Chop
TTITLE8=Genetik And Gio Martinez - Pixel [Original]
TTITLE9=Dave Spoon - 88
TTITLE10=Ericke - Wanna Go Again [Bingo Players Remix]
TTITLE11=Atfc - Praise To The Jb'S
TTITLE12=Jon Cutler Feat E-Man - It'S Yours [Bart B More Deep Down Dub
TTITLE12=]
TTITLE13=Deadmau5 Feat Mc Flipside - Hi Friend [Instrumental Version]
TTITLE14=Sander Van Doorn - Apple [Bart B More Remix]
TTITLE15=Bingo Players Vs Chocolate Puma - Touch Me [Bart B More Remix
TTITLE15=]
TTITLE16=Kid Cudi - Day 'N' Nite [Crookers Remix]
TTITLE17=Bingo Players - Get Up [Diplo Remix]
EXTD=
EXTT0=
EXTT1=
EXTT2=
EXTT3=
EXTT4=
EXTT5=
EXTT6=
EXTT7=
EXTT8=
EXTT9=
EXTT10=
EXTT11=
EXTT12=
EXTT13=
EXTT14=
EXTT15=
EXTT16=
EXTT17=
PLAYORDER=
